<svg xmlns="http://www.w3.org/2000/svg" version="1.1" xmlns:xlink="http://www.w3.org/1999/xlink" xmlns:svgjs="http://svgjs.dev/svgjs" width="2000" height="1500" viewBox="0 0 2000 1500"><rect width="2000" height="1500" fill="#ffffff"></rect><g transform="matrix(0.75,0,0,0.75,249.090909090909,282.7536437246963)"><svg viewBox="0 0 396 247" data-background-color="#ffffff" preserveAspectRatio="xMidYMid meet" height="1247" width="2000" xmlns="http://www.w3.org/2000/svg" xmlns:xlink="http://www.w3.org/1999/xlink"><g id="tight-bounds" transform="matrix(1,0,0,1,0.2400000000000091,-0.09999999999999432)"><svg viewBox="0 0 395.52 247.2" height="247.2" width="395.52"><g><svg></svg></g><g><svg viewBox="0 0 395.52 247.2" height="247.2" width="395.52"><g transform="matrix(1,0,0,1,75.54432000000001,88.35270844877499)"><svg viewBox="0 0 244.43135999999996 70.49458310245" height="70.49458310245" width="244.43135999999996"><g><svg viewBox="0 0 244.43135999999996 70.49458310245" height="70.49458310245" width="244.43135999999996"><g transform="matrix(1,0,0,1,0,43.56848045972687)"><svg viewBox="0 0 244.43135999999996 26.926102642723126" height="26.926102642723126" width="244.43135999999996"><g id="textblocktransform"><svg viewBox="0 0 244.43135999999996 26.926102642723126" height="26.926102642723126" width="244.43135999999996" id="textblock"><g><svg viewBox="0 0 244.43135999999996 26.926102642723126" height="26.926102642723126" width="244.43135999999996"><g transform="matrix(1,0,0,1,0,0)"><svg width="244.43135999999996" viewBox="-2.05 -33.95 373.08 41.1" height="26.926102642723126" data-palette-color="#8789fe"><path d="M35.45-22.9L30.55-5.9Q30.35-5.25 30.35-4.6L30.35-4.6Q30.35-4.05 30.5-3.68 30.65-3.3 30.83-3.08 31-2.85 31.05-2.75L31.05-2.75Q31.55-2.25 31.55-1.75L31.55-1.75Q31.55-1.65 31.45-1.25L31.45-1.25Q31.25-0.55 30.58-0.28 29.9 0 28.5 0L28.5 0 16.65 0Q15.6 0 15.03-0.35 14.45-0.7 14.45-1.3L14.45-1.3Q14.45-1.6 14.6-1.95L14.6-1.95Q14.75-2.35 15.03-2.58 15.3-2.8 15.8-3.1L15.8-3.1Q16.6-3.55 17.1-4.1 17.6-4.65 17.95-5.9L17.95-5.9 19.25-10.2 11.45-10.2 10.1-7.35Q9.25-5.5 9.25-4.45L9.25-4.45Q9.25-3.85 9.45-3.48 9.65-3.1 10.05-2.7L10.05-2.7Q10.4-2.3 10.53-2.02 10.65-1.75 10.55-1.3L10.55-1.3Q10.35-0.55 9.73-0.28 9.1 0 7.75 0L7.75 0 0.3 0Q-0.85 0-1.45-0.43-2.05-0.85-2.05-1.55L-2.05-1.55Q-2.05-2.35-1.48-2.83-0.9-3.3 0.25-3.85L0.25-3.85Q1.75-4.6 2.65-5.33 3.55-6.05 4.2-7.35L4.2-7.35 13.1-25.8Q15.15-30.1 17.93-32.02 20.7-33.95 25.25-33.95L25.25-33.95Q30.35-33.95 33.15-31.88 35.95-29.8 35.95-26.1L35.95-26.1Q35.95-24.55 35.45-22.9L35.45-22.9ZM13.75-15.2L20.75-15.2 23.4-24Q23.6-24.6 23.6-25.25L23.6-25.25Q23.6-26.2 23.08-26.68 22.55-27.15 21.6-27.15L21.6-27.15Q20.4-27.15 19.55-26.45 18.7-25.75 17.85-23.95L17.85-23.95 13.75-15.2ZM63.05-12.9Q64.45-12.9 65.17-12.33 65.9-11.75 65.9-10.7L65.9-10.7Q65.9-10.25 65.75-9.7L65.75-9.7 64.1-3.85Q63.45-1.7 62.27-0.85 61.1 0 58.8 0L58.8 0 35.3 0Q34.25 0 33.67-0.35 33.1-0.7 33.1-1.3L33.1-1.3Q33.1-1.6 33.25-1.95L33.25-1.95Q33.4-2.35 33.75-2.63 34.1-2.9 34.5-3.15L34.5-3.15Q35.3-3.65 35.8-4.17 36.3-4.7 36.65-5.9L36.65-5.9 42.75-27.45Q42.95-28.1 42.95-28.7L42.95-28.7Q42.95-29.25 42.77-29.63 42.6-30 42.3-30.5L42.3-30.5Q41.85-31.15 41.85-31.55L41.85-31.55Q41.85-31.7 41.95-32.1L41.95-32.1Q42.15-32.75 42.82-33.02 43.5-33.3 44.9-33.3L44.9-33.3 56.65-33.3Q57.7-33.3 58.27-32.98 58.85-32.65 58.85-32.05L58.85-32.05Q58.85-31.8 58.7-31.4L58.7-31.4Q58.55-31.05 58.27-30.78 58-30.5 57.77-30.38 57.55-30.25 57.45-30.15L57.45-30.15Q56.65-29.7 56.15-29.15 55.65-28.6 55.3-27.45L55.3-27.45 48.85-4.8 51.95-4.8Q53.1-4.8 53.92-5.2 54.75-5.6 55.65-6.7L55.65-6.7 59.1-10.8Q60.05-11.9 60.92-12.4 61.8-12.9 63.05-12.9L63.05-12.9ZM99.59-33.3Q101.45-33.3 102.47-32.5 103.5-31.7 103.5-30.3L103.5-30.3Q103.5-29.6 103.3-28.95L103.3-28.95 102-24.3Q101.65-22.95 100.97-22.43 100.3-21.9 99.05-21.9L99.05-21.9Q97.85-21.9 97.17-22.43 96.5-22.95 96.15-24.15L96.15-24.15 95.35-27Q95.1-27.9 94.75-28.2 94.4-28.5 93.4-28.5L93.4-28.5 88.15-28.5 85.65-19.6 87.85-19.6Q88.2-19.6 88.8-20.1L88.8-20.1 90.5-21.6Q91.25-22.25 91.8-22.55 92.35-22.85 93.15-22.85L93.15-22.85Q94.05-22.85 94.62-22.38 95.2-21.9 95.2-21.15L95.2-21.15Q95.2-20.95 95.1-20.55L95.1-20.55 93.05-13.6Q92.75-12.5 92.02-11.98 91.3-11.45 90.45-11.45L90.45-11.45Q89.05-11.45 88.35-12.9L88.35-12.9 87.5-14.65Q87.15-15.4 86.4-15.4L86.4-15.4 84.45-15.4 81.5-4.8 85.9-4.8Q86.85-4.8 87.57-5.18 88.3-5.55 89.15-6.5L89.15-6.5 92.15-9.8Q92.95-10.65 93.67-11.03 94.4-11.4 95.45-11.4L95.45-11.4Q96.55-11.4 97.25-10.9 97.95-10.4 97.95-9.4L97.95-9.4Q97.95-9 97.8-8.45L97.8-8.45 96.35-3.4Q95.8-1.5 94.75-0.75 93.7 0 91.7 0L91.7 0 67.85 0Q66.8 0 66.22-0.35 65.65-0.7 65.65-1.3L65.65-1.3Q65.65-1.6 65.8-1.95L65.8-1.95Q66-2.5 66.45-2.8 66.9-3.1 67-3.15L67-3.15Q67.8-3.65 68.3-4.17 68.8-4.7 69.15-5.9L69.15-5.9 75.3-27.45Q75.5-28.1 75.5-28.65L75.5-28.65Q75.5-29.25 75.32-29.65 75.15-30.05 74.8-30.5L74.8-30.5Q74.35-31.15 74.35-31.55L74.35-31.55Q74.35-31.7 74.45-32.1L74.45-32.1Q74.65-32.75 75.35-33.02 76.05-33.3 77.4-33.3L77.4-33.3 99.59-33.3ZM143.29-33.3Q144.44-33.3 145.04-32.88 145.64-32.45 145.64-31.75L145.64-31.75Q145.64-31.45 145.59-31.3L145.59-31.3Q145.44-30.65 144.99-30.33 144.54-30 143.54-29.6L143.54-29.6Q142.19-29 141.12-28.43 140.04-27.85 138.64-26.65L138.64-26.65 128.69-18.2 133.54-6.4Q134.04-5.2 134.67-4.55 135.29-3.9 136.19-3.3L136.19-3.3Q136.84-2.8 137.09-2.53 137.34-2.25 137.34-1.75L137.34-1.75Q137.34-0.85 136.74-0.43 136.14 0 134.74 0L134.74 0 121.29 0Q119.99 0 119.37-0.43 118.74-0.85 118.74-1.55L118.74-1.55Q118.74-1.85 118.79-2L118.79-2Q118.89-2.35 119.14-2.63 119.39-2.9 119.64-3.1L119.64-3.1Q120.04-3.45 120.24-3.75 120.44-4.05 120.44-4.6L120.44-4.6Q120.44-5.45 119.89-6.8L119.89-6.8 118.14-11.05 113.59-6.8Q112.19-5.55 112.19-4.55L112.19-4.55Q112.19-4.1 112.39-3.8 112.59-3.5 113.04-3L113.04-3Q113.49-2.55 113.72-2.15 113.94-1.75 113.79-1.3L113.79-1.3Q113.59-0.55 112.97-0.28 112.34 0 110.99 0L110.99 0 100.54 0Q99.39 0 98.79-0.43 98.19-0.85 98.19-1.55L98.19-1.55Q98.19-1.85 98.24-2L98.24-2Q98.39-2.65 98.84-2.98 99.29-3.3 100.29-3.7L100.29-3.7Q101.69-4.3 102.77-4.9 103.84-5.5 105.19-6.65L105.19-6.65 116.09-16 111.59-26.9Q111.09-28.1 110.47-28.75 109.84-29.4 108.94-30L108.94-30Q108.29-30.5 108.04-30.78 107.79-31.05 107.79-31.55L107.79-31.55Q107.79-32.45 108.39-32.88 108.99-33.3 110.39-33.3L110.39-33.3 123.84-33.3Q125.14-33.3 125.77-32.88 126.39-32.45 126.39-31.75L126.39-31.75Q126.39-31.45 126.34-31.3L126.34-31.3Q126.24-30.95 125.99-30.68 125.74-30.4 125.49-30.2L125.49-30.2Q125.09-29.85 124.89-29.55 124.69-29.25 124.69-28.7L124.69-28.7Q124.69-27.9 125.24-26.5L125.24-26.5 126.64-23.15 130.24-26.5Q131.69-27.8 131.69-28.75L131.69-28.75Q131.69-29.2 131.47-29.53 131.24-29.85 130.79-30.3L130.79-30.3Q130.69-30.4 130.42-30.73 130.14-31.05 130.04-31.38 129.94-31.7 130.04-32L130.04-32Q130.24-32.75 130.87-33.02 131.49-33.3 132.84-33.3L132.84-33.3 143.29-33.3ZM140.29 4.1Q140.64 2.65 141.74 1.85 142.84 1.05 144.44 1.05L144.44 1.05 174.09 1.05Q176.84 1.05 176.84 3.2L176.84 3.2Q176.84 3.75 176.74 4.1L176.74 4.1Q175.79 7.15 172.54 7.15L172.54 7.15 142.89 7.15Q141.54 7.15 140.84 6.63 140.14 6.1 140.14 5.1L140.14 5.1Q140.14 4.65 140.29 4.1L140.29 4.1ZM220.99-33.5Q223.09-33.5 224.49-32.15 225.89-30.8 225.89-28.5L225.89-28.5Q225.89-25.9 224.34-24.3 222.79-22.7 220.64-22.7L220.64-22.7Q219.24-22.7 218.24-23.2 217.24-23.7 216.34-24.8L216.34-24.8 212.04-21.2 216.89-6.85Q217.34-5.6 217.86-4.85 218.39-4.1 219.14-3.35L219.14-3.35Q219.69-2.8 219.91-2.48 220.14-2.15 220.14-1.7L220.14-1.7Q220.14-0.9 219.41-0.45 218.69 0 216.89 0L216.89 0 210.34 0Q207.89 0 206.71-1.07 205.54-2.15 204.79-4.65L204.79-4.65 202.29-13.05 200.84-11.85 199.19-5.9Q198.99-5.25 198.99-4.65L198.99-4.65Q198.99-4.05 199.16-3.65 199.34-3.25 199.69-2.8L199.69-2.8Q200.14-2.15 200.14-1.75L200.14-1.75Q200.14-1.65 200.04-1.25L200.04-1.25Q199.84-0.55 199.14-0.28 198.44 0 197.04 0L197.04 0 185.29 0Q184.24 0 183.66-0.35 183.09-0.7 183.09-1.3L183.09-1.3Q183.09-1.6 183.24-1.95L183.24-1.95Q183.44-2.5 183.89-2.8 184.34-3.1 184.44-3.15L184.44-3.15Q185.24-3.65 185.74-4.17 186.24-4.7 186.59-5.9L186.59-5.9 192.69-27.45Q192.89-28.1 192.89-28.7L192.89-28.7Q192.89-29.25 192.71-29.63 192.54-30 192.24-30.5L192.24-30.5Q191.79-31.15 191.79-31.55L191.79-31.55Q191.79-31.7 191.89-32.1L191.89-32.1Q192.09-32.75 192.76-33.02 193.44-33.3 194.84-33.3L194.84-33.3 206.59-33.3Q207.64-33.3 208.21-32.98 208.79-32.65 208.79-32.05L208.79-32.05Q208.79-31.8 208.64-31.4L208.64-31.4Q208.49-31.05 208.21-30.78 207.94-30.5 207.71-30.38 207.49-30.25 207.39-30.15L207.39-30.15Q206.59-29.7 206.09-29.15 205.59-28.6 205.24-27.45L205.24-27.45 203.14-20 216.39-31.45Q217.69-32.55 218.74-33.02 219.79-33.5 220.99-33.5L220.99-33.5ZM259.19-22.9L254.28-5.9Q254.08-5.25 254.08-4.6L254.08-4.6Q254.08-4.05 254.23-3.68 254.38-3.3 254.56-3.08 254.73-2.85 254.78-2.75L254.78-2.75Q255.28-2.25 255.28-1.75L255.28-1.75Q255.28-1.65 255.19-1.25L255.19-1.25Q254.98-0.55 254.31-0.28 253.63 0 252.23 0L252.23 0 240.38 0Q239.33 0 238.76-0.35 238.18-0.7 238.18-1.3L238.18-1.3Q238.18-1.6 238.33-1.95L238.33-1.95Q238.48-2.35 238.76-2.58 239.03-2.8 239.53-3.1L239.53-3.1Q240.33-3.55 240.83-4.1 241.33-4.65 241.68-5.9L241.68-5.9 242.98-10.2 235.18-10.2 233.83-7.35Q232.98-5.5 232.98-4.45L232.98-4.45Q232.98-3.85 233.18-3.48 233.38-3.1 233.78-2.7L233.78-2.7Q234.13-2.3 234.26-2.02 234.38-1.75 234.28-1.3L234.28-1.3Q234.08-0.55 233.46-0.28 232.83 0 231.48 0L231.48 0 224.03 0Q222.88 0 222.28-0.43 221.68-0.85 221.68-1.55L221.68-1.55Q221.68-2.35 222.26-2.83 222.83-3.3 223.98-3.85L223.98-3.85Q225.48-4.6 226.38-5.33 227.28-6.05 227.93-7.35L227.93-7.35 236.83-25.8Q238.88-30.1 241.66-32.02 244.44-33.95 248.98-33.95L248.98-33.95Q254.08-33.95 256.88-31.88 259.69-29.8 259.69-26.1L259.69-26.1Q259.69-24.55 259.19-22.9L259.19-22.9ZM237.48-15.2L244.48-15.2 247.13-24Q247.33-24.6 247.33-25.25L247.33-25.25Q247.33-26.2 246.81-26.68 246.28-27.15 245.33-27.15L245.33-27.15Q244.13-27.15 243.28-26.45 242.43-25.75 241.58-23.95L241.58-23.95 237.48-15.2ZM282.08-33.3Q289.58-33.3 293.38-30.43 297.18-27.55 297.18-22L297.18-22Q297.18-19.25 296.18-15.65L296.18-15.65Q294.53-9.85 291.73-6.45 288.93-3.05 284.36-1.5 279.78 0.05 272.63 0L272.63 0 259.03-0.05Q257.98-0.05 257.41-0.4 256.83-0.75 256.83-1.35L256.83-1.35Q256.83-1.65 256.98-2L256.98-2Q257.13-2.45 257.41-2.65 257.68-2.85 258.23-3.2L258.23-3.2Q259.03-3.65 259.51-4.2 259.98-4.75 260.33-5.95L260.33-5.95 266.43-27.45Q266.63-28.1 266.63-28.7L266.63-28.7Q266.63-29.25 266.46-29.63 266.28-30 265.98-30.5L265.98-30.5Q265.53-31.15 265.53-31.55L265.53-31.55Q265.53-31.7 265.63-32.1L265.63-32.1Q265.83-32.75 266.51-33.02 267.18-33.3 268.58-33.3L268.58-33.3 282.08-33.3ZM283.38-16.75Q284.68-21.45 284.68-24.15L284.68-24.15Q284.68-26.8 283.58-27.8 282.48-28.8 280.43-28.8L280.43-28.8 279.33-28.8 272.58-4.5 273.78-4.5Q276.08-4.5 277.66-5.48 279.23-6.45 280.58-9.08 281.93-11.7 283.38-16.75L283.38-16.75ZM329.68-22.9L324.78-5.9Q324.58-5.25 324.58-4.6L324.58-4.6Q324.58-4.05 324.73-3.68 324.88-3.3 325.06-3.08 325.23-2.85 325.28-2.75L325.28-2.75Q325.78-2.25 325.78-1.75L325.78-1.75Q325.78-1.65 325.68-1.25L325.68-1.25Q325.48-0.55 324.81-0.28 324.13 0 322.73 0L322.73 0 310.88 0Q309.83 0 309.25-0.35 308.68-0.7 308.68-1.3L308.68-1.3Q308.68-1.6 308.83-1.95L308.83-1.95Q308.98-2.35 309.25-2.58 309.53-2.8 310.03-3.1L310.03-3.1Q310.83-3.55 311.33-4.1 311.83-4.65 312.18-5.9L312.18-5.9 313.48-10.2 305.68-10.2 304.33-7.35Q303.48-5.5 303.48-4.45L303.48-4.45Q303.48-3.85 303.68-3.48 303.88-3.1 304.28-2.7L304.28-2.7Q304.63-2.3 304.75-2.02 304.88-1.75 304.78-1.3L304.78-1.3Q304.58-0.55 303.96-0.28 303.33 0 301.98 0L301.98 0 294.53 0Q293.38 0 292.78-0.43 292.18-0.85 292.18-1.55L292.18-1.55Q292.18-2.35 292.75-2.83 293.33-3.3 294.48-3.85L294.48-3.85Q295.98-4.6 296.88-5.33 297.78-6.05 298.43-7.35L298.43-7.35 307.33-25.8Q309.38-30.1 312.16-32.02 314.93-33.95 319.48-33.95L319.48-33.95Q324.58-33.95 327.38-31.88 330.18-29.8 330.18-26.1L330.18-26.1Q330.18-24.55 329.68-22.9L329.68-22.9ZM307.98-15.2L314.98-15.2 317.63-24Q317.83-24.6 317.83-25.25L317.83-25.25Q317.83-26.2 317.31-26.68 316.78-27.15 315.83-27.15L315.83-27.15Q314.63-27.15 313.78-26.45 312.93-25.75 312.08-23.95L312.08-23.95 307.98-15.2ZM366.03-33.5Q368.23-33.5 369.63-32.08 371.03-30.65 371.03-28.45L371.03-28.45Q371.03-28.15 370.93-27.35L370.93-27.35Q370.53-24.95 369.05-23.8 367.58-22.65 365.63-22.65L365.63-22.65Q364.33-22.65 363.43-23.05 362.53-23.45 361.73-24.4L361.73-24.4 353.48-13.65 351.18-5.9Q351.08-5.6 351.08-5.1L351.08-5.1Q351.08-4.4 351.43-3.93 351.78-3.45 352.43-2.9L352.43-2.9Q352.98-2.4 353.23-2.05 353.48-1.7 353.33-1.25L353.33-1.25Q353.13-0.55 352.35-0.28 351.58 0 350.23 0L350.23 0 337.63 0Q336.33 0 335.7-0.48 335.08-0.95 335.28-1.8L335.28-1.8Q335.38-2.25 335.65-2.53 335.93-2.8 336.53-3.2L336.53-3.2Q337.28-3.65 337.78-4.23 338.28-4.8 338.63-5.9L338.63-5.9 340.93-13.7 336.33-26.8Q335.83-28.25 335.15-29.03 334.48-29.8 333.58-30.55L333.58-30.55Q333.03-30.95 332.78-31.25 332.53-31.55 332.53-31.95L332.53-31.95Q332.53-32.55 333.05-32.93 333.58-33.3 334.58-33.3L334.58-33.3 347.93-33.3Q349.68-33.3 350.33-33 350.98-32.7 351.03-31.95L351.03-31.95Q351.03-31.5 350.83-31.18 350.63-30.85 350.23-30.4L350.23-30.4Q349.78-29.8 349.55-29.43 349.33-29.05 349.33-28.5L349.33-28.5Q349.33-28.35 349.43-27.85L349.43-27.85 351.73-19.05 358.08-28.1Q360.13-31 361.95-32.25 363.78-33.5 366.03-33.5L366.03-33.5Z" opacity="1" transform="matrix(1,0,0,1,0,0)" fill="#8789fe" class="wordmark-text-0" data-fill-palette-color="primary" id="text-0"></path></svg></g></svg></g></svg></g></svg></g><g transform="matrix(1,0,0,1,95.60974307387829,0)"><svg viewBox="0 0 53.211873852243365 37.211873852243365" height="37.211873852243365" width="53.211873852243365"><g><svg xmlns:rdf="http://www.w3.org/1999/02/22-rdf-syntax-ns#" xmlns:dc="http://purl.org/dc/elements/1.1/" xmlns:cc="http://creativecommons.org/ns#" xmlns:sodipodi="http://sodipodi.sourceforge.net/DTD/sodipodi-0.dtd" xmlns:inkscape="http://www.inkscape.org/namespaces/inkscape" xmlns:svg="http://www.w3.org/2000/svg" xmlns="http://www.w3.org/2000/svg" xmlns:xlink="http://www.w3.org/1999/xlink" version="1.1" x="8" y="0" viewBox="31.5 31.5 737 737" enable-background="new 0 0 800 800" xml:space="preserve" height="37.211873852243365" width="37.211873852243365" class="icon-icon-0" data-fill-palette-color="accent" id="icon-0"><g fill="#8789fe" data-fill-palette-color="accent"><path fill="#8789fe" d="M399.996 31.5C196.808 31.5 31.5 196.811 31.5 400c0 203.188 165.308 368.5 368.496 368.5 203.2 0 368.504-165.312 368.504-368.5C768.5 196.811 603.196 31.5 399.996 31.5zM399.996 738.056C213.598 738.056 61.94 586.405 61.94 400c0-186.406 151.658-338.056 338.056-338.056 186.417 0 338.06 151.65 338.06 338.056C738.056 586.405 586.413 738.056 399.996 738.056z" data-fill-palette-color="accent"></path><path fill="#8789fe" d="M249.164 499.799c7.946 4.75 17.036 7.284 26.476 7.284 28.579 0 51.829-23.249 51.829-51.828 0-25.465-18.463-46.692-42.708-51.019-11.484-26.616-37.848-44.403-67.519-44.403-23.859 0-45.622 11.268-59.335 30.087-3.36-0.587-6.771-0.884-10.235-0.884-32.541 0-59.016 26.475-59.016 59.023s26.476 59.023 59.016 59.023c11.654 0 23.056-3.53 32.689-9.938C201.059 509.157 227.69 510.16 249.164 499.799zM168.474 467.593c-5.493 5.835-12.881 9.046-20.804 9.046-15.757 0-28.571-12.821-28.571-28.579 0-15.757 12.814-28.578 28.571-28.578 3.88 0 7.656 0.765 11.223 2.289 7.448 3.166 16.055-0.037 19.623-7.299 7.329-14.925 22.172-24.194 38.725-24.194 19.623 0 36.785 13.29 41.728 32.31 1.828 7.023 8.339 11.744 15.608 11.372 0.067-0.008 0.989-0.074 1.063-0.082 11.788 0 21.384 9.589 21.384 21.377s-9.596 21.384-21.384 21.384c-5.538 0-10.792-2.126-14.798-5.998-2.929-2.817-6.734-4.259-10.569-4.259-3.003 0-6.006 0.884-8.622 2.676-15.602 10.718-37.773 9.618-52.252-2.646C183.221 461.186 174.026 461.691 168.474 467.593z" data-fill-palette-color="accent"></path><path fill="#8789fe" d="M460.651 570.402c-13.736-34.436-47.228-57.633-85.02-57.633-30.69 0-58.6 14.991-75.539 39.861-5.047-1.093-10.22-1.65-15.467-1.65-39.988 0-72.529 32.533-72.529 72.521 0 39.996 32.541 72.536 72.529 72.536 15.564 0 30.303-4.854 42.604-13.877 26.862 16.761 62.42 18.188 90.431 3.664 10.168 6.646 22.045 10.213 34.384 10.213 34.8 0 63.104-28.312 63.104-63.111C515.147 601.048 491.393 574.609 460.651 570.402zM452.044 665.594c-8.458 0-16.501-3.256-22.64-9.165-2.929-2.81-6.734-4.251-10.555-4.251-3.003 0-6.006 0.885-8.622 2.676-10.224 7.023-22.183 10.74-34.596 10.74-14.427 0-28.438-5.144-39.446-14.494-6.176-5.247-15.378-4.727-20.93 1.175-8.087 8.592-18.961 13.319-30.63 13.319-23.205 0-42.084-18.879-42.084-42.092 0-23.197 18.879-42.076 42.084-42.076 5.723 0 11.275 1.129 16.5 3.359 7.433 3.159 16.069-0.022 19.637-7.284 10.391-21.146 31.418-34.287 54.869-34.287 27.813 0 52.137 18.827 59.139 45.793 1.828 7.046 8.354 11.937 15.668 11.364 0.06 0 1.546-0.104 1.605-0.111 18.017 0 32.659 14.657 32.659 32.667S470.061 665.594 452.044 665.594z" data-fill-palette-color="accent"></path><path fill="#8789fe" d="M653.575 451.293c-9.47-19.904-29.687-33.061-52.342-33.061-17.972 0-34.413 8.102-45.28 21.748-1.888-0.23-3.79-0.342-5.708-0.342-26.104 0-47.332 21.235-47.332 47.332 0 26.096 21.229 47.323 47.332 47.323 8.503 0 16.843-2.341 24.082-6.63 15.326 8.035 34.354 8.675 50.126 1.792 5.977 3.158 12.666 4.838 19.593 4.838 23.19 0 42.055-18.864 42.055-42.054C686.101 472.335 672.187 455.619 653.575 451.293zM644.046 503.85c-3.003 0-5.856-1.159-8.042-3.255-2.929-2.817-6.734-4.259-10.569-4.259-2.988 0-6.006 0.884-8.607 2.676-9.959 6.845-24.126 6.146-33.388-1.688-6.169-5.232-15.371-4.713-20.915 1.189-3.241 3.441-7.597 5.336-12.279 5.336-9.32 0-16.887-7.573-16.887-16.879 0-9.313 7.566-16.888 16.887-16.888 2.289 0 4.52 0.453 6.585 1.338 7.448 3.196 16.1 0 19.668-7.276 4.682-9.544 14.151-15.468 24.735-15.468 12.532 0 23.487 8.488 26.654 20.641 1.799 6.883 7.997 11.691 15.222 11.38 0.119-0.008 0.803-0.045 0.937-0.053 6.393 0 11.61 5.203 11.61 11.596C655.656 498.64 650.438 503.85 644.046 503.85z" data-fill-palette-color="accent"></path><path fill="#8789fe" d="M433.388 188.754c-7.938 25.301-5.53 52.17 6.764 75.666 12.279 23.487 32.972 40.791 58.272 48.714 9.663 3.025 19.638 4.557 29.687 4.557l0 0c43.601 0 81.656-27.97 94.693-69.608 7.923-25.293 5.529-52.163-6.764-75.658-12.294-23.487-32.987-40.791-58.288-48.699-9.662-3.033-19.652-4.563-29.701-4.563C484.466 119.162 446.425 147.131 433.388 188.754zM462.435 197.859c9.038-28.861 35.41-48.253 65.616-48.253 6.957 0 13.885 1.063 20.604 3.174 17.541 5.485 31.887 17.474 40.404 33.759 8.519 16.285 10.184 34.912 4.697 52.445-9.038 28.869-35.424 48.269-65.646 48.261-6.957 0-13.884-1.063-20.589-3.159-17.526-5.5-31.886-17.497-40.404-33.782C458.6 234.02 456.935 215.4 462.435 197.859z" data-fill-palette-color="accent"></path><path fill="#8789fe" d="M433.433 137.996c3.003 3.263 7.091 4.92 11.208 4.92 3.687 0 7.373-1.331 10.302-4.014 6.185-5.693 6.586-15.326 0.893-21.51l-20.604-22.417c-5.679-6.184-15.312-6.578-21.511-0.907-6.184 5.694-6.585 15.327-0.906 21.511L433.433 137.996z" data-fill-palette-color="accent"></path><path fill="#8789fe" d="M373.863 227.219l30.418 1.271c0.223 0.008 0.431 0.015 0.654 0.015 8.116 0 14.851-6.407 15.192-14.59 0.356-8.399-6.169-15.49-14.568-15.839l-30.426-1.271c-8.362-0.275-15.497 6.177-15.839 14.576C358.938 219.778 365.464 226.869 373.863 227.219z" data-fill-palette-color="accent"></path><path fill="#8789fe" d="M427.055 290.687l-22.417 20.611c-6.188 5.686-6.589 15.318-0.896 21.502 3.007 3.263 7.095 4.92 11.213 4.92 3.687 0 7.373-1.33 10.301-4.021l22.402-20.611c6.199-5.686 6.601-15.319 0.907-21.503S433.254 284.993 427.055 290.687z" data-fill-palette-color="accent"></path><path fill="#8789fe" d="M507.745 340.969l-1.264 30.422c-0.357 8.399 6.169 15.49 14.568 15.839 0.223 0.007 0.431 0.015 0.639 0.015 8.116 0 14.865-6.407 15.208-14.59l1.263-30.422c0.343-8.399-6.184-15.49-14.583-15.839C515.118 326.17 508.087 332.578 507.745 340.969z" data-fill-palette-color="accent"></path><path fill="#8789fe" d="M601.249 297.963c-6.185 5.693-6.586 15.319-0.893 21.51l20.618 22.41c2.988 3.263 7.091 4.913 11.194 4.913 3.687 0 7.388-1.331 10.302-4.021 6.198-5.694 6.6-15.319 0.906-21.511l-20.618-22.41C617.065 292.671 607.447 292.277 601.249 297.963z" data-fill-palette-color="accent"></path></g></svg></g></svg></g><g><rect width="95.60974307387829" height="2.428223724058699" y="33.78365012818467" x="148.82161692612166" fill="#8789fe" data-fill-palette-color="accent"></rect><rect width="95.60974307387829" height="2.428223724058699" y="33.78365012818467" x="0" fill="#8789fe" data-fill-palette-color="accent"></rect><rect width="95.60974307387829" height="2.428223724058699" y="28.927202680067268" x="148.82161692612166" fill="#8789fe" data-fill-palette-color="accent"></rect><rect width="95.60974307387829" height="2.428223724058699" y="28.927202680067268" x="0" fill="#8789fe" data-fill-palette-color="accent"></rect></g></svg></g></svg></g><g><path d="M82.844 81.996A122.216 122.216 0 0 1 312.676 81.996L310.248 81.996A119.787 119.787 0 0 0 85.272 81.996L82.844 81.996M82.844 165.204A122.216 122.216 0 0 0 312.676 165.204L310.248 165.204A119.787 119.787 0 0 1 85.272 165.204L82.844 165.204" fill="#8789fe" stroke="transparent" data-fill-palette-color="tertiary"></path></g></svg></g><defs></defs></svg><rect width="395.52" height="247.2" fill="none" stroke="none" visibility="hidden"></rect></g></svg></g></svg>